# xmcd CD database file
#
# Track frame offsets:
#	150
#	36997
#	66060
#	97415
#	128797
#	160812
#	190942
#	222447
#
# Disc length: 3278 seconds
#
# Revision: 0
# Processed by: cddbd v1.5.2PL0 Copyright (c) Steve Scherf et al.
# Submitted via: CDex 1.70beta2
#
DISCID=770ccc08
DTITLE=The Cannonball Adderley Quintet - Plus
DYEAR=1961
DGENRE=Jazz
TTITLE0=Arriving Soon
TTITLE1=Well, you needn't
TTITLE2=New Dehli
TTITLE3=Winetone
TTITLE4=Star eyes
TTITLE5=Lisa (Take 8)
TTITLE6=Lisa (Take 3)
TTITLE7='O P'
EXTD=YEAR: 1961
EXTT0=
EXTT1=
EXTT2=
EXTT3=
EXTT4=
EXTT5=
EXTT6=
EXTT7=
PLAYORDER=
